<svg width="50" height="50" viewBox="0 0 50 50" fill="none" xmlns="http://www.w3.org/2000/svg">
<g clip-path="url(#clip0_490_700)">
<g filter="url(#filter0_d_490_700)">
<path d="M35.416 6.95831C38.5582 8.77259 41.1721 11.3761 42.999 14.511C44.8258 17.646 45.8022 21.2037 45.8315 24.8319C45.8608 28.4602 44.942 32.0332 43.1661 35.1973C41.3901 38.3613 38.8186 41.0067 35.7061 42.8715C32.5936 44.7363 29.048 45.7559 25.4204 45.8293C21.7927 45.9027 18.2088 45.0274 15.0234 43.2901C11.838 41.5527 9.16158 39.0136 7.25907 35.924C5.35656 32.8344 4.29395 29.3015 4.17643 25.675L4.16602 25L4.17643 24.325C4.29311 20.727 5.34007 17.2207 7.21526 14.1479C9.09046 11.075 11.7299 8.5405 14.8762 6.7914C18.0225 5.0423 21.5684 4.13831 25.1681 4.16756C28.7678 4.19681 32.2985 5.15831 35.416 6.95831ZM21.8973 19.0416C21.4608 18.7818 20.9444 18.6904 20.4452 18.7846C19.946 18.8788 19.4985 19.1522 19.1867 19.5533C18.875 19.9543 18.7205 20.4555 18.7524 20.9625C18.7843 21.4695 19.0003 21.9473 19.3598 22.3062L22.0514 25L19.3598 27.6937L19.1868 27.8896C18.8631 28.3083 18.7108 28.8346 18.761 29.3615C18.8112 29.8884 19.0601 30.3765 19.4571 30.7265C19.8541 31.0766 20.3695 31.2624 20.8985 31.2463C21.4276 31.2301 21.9307 31.0132 22.3056 30.6396L24.9993 27.9479L27.6931 30.6396L27.8889 30.8125C28.3077 31.1363 28.8339 31.2885 29.3609 31.2383C29.8878 31.1881 30.3758 30.9392 30.7259 30.5422C31.076 30.1452 31.2618 29.6298 31.2457 29.1008C31.2295 28.5717 31.0126 28.0686 30.6389 27.6937L27.9473 25L30.6389 22.3062L30.8118 22.1104C31.1356 21.6917 31.2879 21.1654 31.2377 20.6385C31.1875 20.1115 30.9386 19.6235 30.5416 19.2734C30.1446 18.9233 29.6292 18.7375 29.1001 18.7537C28.5711 18.7698 28.068 18.9868 27.6931 19.3604L24.9993 22.0521L22.3056 19.3604L22.1098 19.1875L21.8973 19.0416Z" fill="white"/>
</g>
</g>
<defs>
<filter id="filter0_d_490_700" x="0.166016" y="0.16687" width="49.666" height="49.6667" filterUnits="userSpaceOnUse" color-interpolation-filters="sRGB">
<feFlood flood-opacity="0" result="BackgroundImageFix"/>
<feColorMatrix in="SourceAlpha" type="matrix" values="0 0 0 0 0 0 0 0 0 0 0 0 0 0 0 0 0 0 127 0" result="hardAlpha"/>
<feOffset/>
<feGaussianBlur stdDeviation="2"/>
<feComposite in2="hardAlpha" operator="out"/>
<feColorMatrix type="matrix" values="0 0 0 0 0 0 0 0 0 0 0 0 0 0 0 0 0 0 0.25 0"/>
<feBlend mode="normal" in2="BackgroundImageFix" result="effect1_dropShadow_490_700"/>
<feBlend mode="normal" in="SourceGraphic" in2="effect1_dropShadow_490_700" result="shape"/>
</filter>
<clipPath id="clip0_490_700">
<rect width="50" height="50" fill="white"/>
</clipPath>
</defs>
</svg>
