<svg width="42" height="42" viewBox="0 0 42 42" fill="none" xmlns="http://www.w3.org/2000/svg">
<rect width="42" height="42" rx="21" fill="#FF0000"/>
<path d="M12.6643 16H28.6643M13.6643 16L14.6643 28C14.6643 28.5304 14.875 29.0391 15.2501 29.4142C15.6252 29.7893 16.1339 30 16.6643 30H24.6643C25.1947 30 25.7034 29.7893 26.0785 29.4142C26.4536 29.0391 26.6643 28.5304 26.6643 28L27.6643 16M17.6643 16V13C17.6643 12.7348 17.7697 12.4804 17.9572 12.2929C18.1447 12.1054 18.3991 12 18.6643 12H22.6643C22.9295 12 23.1839 12.1054 23.3714 12.2929C23.5589 12.4804 23.6643 12.7348 23.6643 13V16M18.6643 21L22.6643 25M22.6643 21L18.6643 25" stroke="white" stroke-width="2" stroke-linecap="round" stroke-linejoin="round"/>
</svg>
