<svg width="75" height="75" viewBox="0 0 75 75" fill="none" xmlns="http://www.w3.org/2000/svg">
<path d="M48.7402 37.4955C48.7402 43.4537 43.6987 48.2837 37.4796 48.2837C31.2606 48.2837 26.2191 43.4537 26.2191 37.4955C26.2191 31.5372 31.2606 26.7072 37.4796 26.7072C43.6987 26.7072 48.7402 31.5373 48.7402 37.4955ZM37.5 15.0327C31.0609 15.0613 24.3866 16.6288 18.0685 19.63C13.3774 21.9502 8.80562 25.2235 4.83712 29.2638C2.888 31.3263 0.401938 34.3127 0 37.499C0.0475 40.259 3.00812 43.6658 4.83712 45.7342C8.55856 49.6158 13.0113 52.7978 18.0685 55.3703C23.9604 58.2298 30.482 59.8761 37.5 59.9677C43.9452 59.9387 50.618 58.353 56.9291 55.3703C61.6203 53.0502 66.1943 49.7745 70.1629 45.7342C72.1119 43.6717 74.598 40.6853 75 37.499C74.9525 34.7389 71.9919 31.332 70.1629 29.2637C66.4414 25.3821 61.9864 22.2025 56.9291 19.6299C51.0403 16.7727 44.5026 15.1377 37.5 15.0327ZM37.4953 20.6107C47.2527 20.6107 55.1624 28.1728 55.1624 37.5014C55.1624 46.83 47.2527 54.392 37.4953 54.392C27.7378 54.392 19.8281 46.8298 19.8281 37.5014C19.8281 28.1728 27.7378 20.6107 37.4953 20.6107Z" fill="black"/>
</svg>
