<svg width="30" height="30" viewBox="0 0 30 30" fill="none" xmlns="http://www.w3.org/2000/svg">
<path d="M8.5631 22.3513C10.33 24.1101 12.655 25.2046 15.1418 25.4483C17.6287 25.6919 20.1234 25.0697 22.201 23.6877C24.2786 22.3056 25.8104 20.2492 26.5354 17.8689C27.2604 15.4886 27.1337 12.9318 26.1769 10.634C25.2202 8.33629 23.4925 6.43989 21.2884 5.26799C19.0843 4.09609 16.5401 3.72122 14.0895 4.20726C11.6388 4.69329 9.4333 6.01016 7.84878 7.93345C6.26427 9.85673 5.39881 12.2674 5.3999 14.7547V17.1388" stroke="#B1B1B1" stroke-width="2.5" stroke-linecap="round" stroke-linejoin="round"/>
<path d="M3 14.7499L5.4 17.1388L7.8 14.7499M15 9.97217V15.9444H21" stroke="#B1B1B1" stroke-width="2.5" stroke-linecap="round" stroke-linejoin="round"/>
</svg>
