<svg width="25" height="24" viewBox="0 0 25 24" fill="none" xmlns="http://www.w3.org/2000/svg">
<path d="M4.66431 7H20.6643M5.66431 7L6.66431 19C6.66431 19.5304 6.87502 20.0391 7.25009 20.4142C7.62517 20.7893 8.13387 21 8.66431 21H16.6643C17.1947 21 17.7034 20.7893 18.0785 20.4142C18.4536 20.0391 18.6643 19.5304 18.6643 19L19.6643 7M9.66431 7V4C9.66431 3.73478 9.76966 3.48043 9.9572 3.29289C10.1447 3.10536 10.3991 3 10.6643 3H14.6643C14.9295 3 15.1839 3.10536 15.3714 3.29289C15.5589 3.48043 15.6643 3.73478 15.6643 4V7M10.6643 12L14.6643 16M14.6643 12L10.6643 16" stroke="white" stroke-width="2" stroke-linecap="round" stroke-linejoin="round"/>
</svg>
