<svg width="35" height="35" viewBox="0 0 35 35" fill="none" xmlns="http://www.w3.org/2000/svg">
<path fill-rule="evenodd" clip-rule="evenodd" d="M20 7.5C20 9.48912 19.2098 11.3968 17.8033 12.8033C16.3968 14.2098 14.4891 15 12.5 15C10.5109 15 8.60322 14.2098 7.1967 12.8033C5.79018 11.3968 5 9.48912 5 7.5C5 5.51088 5.79018 3.60322 7.1967 2.1967C8.60322 0.790176 10.5109 0 12.5 0C14.4891 0 16.3968 0.790176 17.8033 2.1967C19.2098 3.60322 20 5.51088 20 7.5ZM26.875 18.75C27.3723 18.75 27.8492 18.9475 28.2008 19.2992C28.5525 19.6508 28.75 20.1277 28.75 20.625V25H33.125C33.6223 25 34.0992 25.1975 34.4508 25.5492C34.8025 25.9008 35 26.3777 35 26.875C35 27.3723 34.8025 27.8492 34.4508 28.2008C34.0992 28.5525 33.6223 28.75 33.125 28.75H28.75V33.125C28.75 33.6223 28.5525 34.0992 28.2008 34.4508C27.8492 34.8025 27.3723 35 26.875 35C26.3777 35 25.9008 34.8025 25.5492 34.4508C25.1975 34.0992 25 33.6223 25 33.125V28.75H20.625C20.1277 28.75 19.6508 28.5525 19.2992 28.2008C18.9475 27.8492 18.75 27.3723 18.75 26.875C18.75 26.3777 18.9475 25.9008 19.2992 25.5492C19.6508 25.1975 20.1277 25 20.625 25H25V20.625C25 20.1277 25.1975 19.6508 25.5492 19.2992C25.9008 18.9475 26.3777 18.75 26.875 18.75ZM12.5 17.5C16.2325 17.5 19.585 19.1375 21.875 21.7325V21.875H20.625C19.5161 21.874 18.4384 22.2417 17.5614 22.9201C16.6843 23.5986 16.0576 24.5494 15.7799 25.6229C15.5022 26.6964 15.5893 27.8318 16.0274 28.8504C16.4655 29.8691 17.2298 30.7132 18.2 31.25H1.25C0.918479 31.25 0.600537 31.1183 0.366117 30.8839C0.131696 30.6495 0 30.3315 0 30C0 26.6848 1.31696 23.5054 3.66117 21.1612C6.00537 18.817 9.18479 17.5 12.5 17.5Z" fill="white"/>
</svg>
