<svg width="30" height="30" viewBox="0 0 30 30" fill="none" xmlns="http://www.w3.org/2000/svg">
<path d="M11.2501 8.75V2.77625C11.0194 2.89497 10.8085 3.0489 10.6251 3.2325L5.73262 8.125C5.54902 8.30839 5.39509 8.51925 5.27637 8.75H11.2501Z" fill="#B1B1B1"/>
<path fill-rule="evenodd" clip-rule="evenodd" d="M13.75 8.75V2.5H22.5C23.163 2.5 23.7989 2.76339 24.2678 3.23223C24.7366 3.70107 25 4.33696 25 5V25C25 25.663 24.7366 26.2989 24.2678 26.7678C23.7989 27.2366 23.163 27.5 22.5 27.5H7.5C6.83696 27.5 6.20107 27.2366 5.73223 26.7678C5.26339 26.2989 5 25.663 5 25V11.25H11.25C11.913 11.25 12.5489 10.9866 13.0178 10.5178C13.4866 10.0489 13.75 9.41304 13.75 8.75ZM19.6337 15.8837C19.8614 15.648 19.9874 15.3322 19.9846 15.0045C19.9817 14.6768 19.8503 14.3632 19.6185 14.1315C19.3868 13.8997 19.0732 13.7683 18.7455 13.7654C18.4178 13.7626 18.102 13.8886 17.8663 14.1163L13.75 18.2325L12.1337 16.6163C11.898 16.3886 11.5822 16.2626 11.2545 16.2654C10.9268 16.2683 10.6132 16.3997 10.3815 16.6315C10.1497 16.8632 10.0183 17.1768 10.0154 17.5045C10.0126 17.8322 10.1386 18.148 10.3663 18.3837L12.8663 20.8838C13.1007 21.1181 13.4185 21.2497 13.75 21.2497C14.0815 21.2497 14.3993 21.1181 14.6337 20.8838L19.6337 15.8837Z" fill="#B1B1B1"/>
</svg>
