<svg width="30" height="30" viewBox="0 0 30 30" fill="none" xmlns="http://www.w3.org/2000/svg">
<path d="M10.125 15C11.4179 15 12.6579 14.4864 13.5721 13.5721C14.4864 12.6579 15 11.4179 15 10.125C15 8.83207 14.4864 7.59209 13.5721 6.67785C12.6579 5.76361 11.4179 5.25 10.125 5.25C8.83207 5.25 7.59209 5.76361 6.67785 6.67785C5.76361 7.59209 5.25 8.83207 5.25 10.125C5.25 11.4179 5.76361 12.6579 6.67785 13.5721C7.59209 14.4864 8.83207 15 10.125 15ZM15.75 18.75C15.75 18.0285 16.0905 17.385 16.62 16.974C16.1365 16.6642 15.5742 16.4997 15 16.5H5.25C4.45435 16.5 3.69129 16.8161 3.12868 17.3787C2.56607 17.9413 2.25 18.7044 2.25 19.5C2.25 19.5 2.25 25.5 10.125 25.5C13.0545 25.5 14.895 24.669 16.05 23.625C16.128 23.49 16.219 23.365 16.323 23.25C15.954 22.8375 15.75 22.3035 15.75 21.75C15.75 21.174 15.966 20.6475 16.323 20.25C15.954 19.8375 15.75 19.3035 15.75 18.75ZM25.5 11.25C25.5 12.2446 25.1049 13.1984 24.4016 13.9017C23.6984 14.6049 22.7446 15 21.75 15C20.7554 15 19.8016 14.6049 19.0984 13.9017C18.3951 13.1984 18 12.2446 18 11.25C18 10.2554 18.3951 9.30161 19.0984 8.59835C19.8016 7.89509 20.7554 7.5 21.75 7.5C22.7446 7.5 23.6984 7.89509 24.4016 8.59835C25.1049 9.30161 25.5 10.2554 25.5 11.25ZM18 18C17.8011 18 17.6103 18.079 17.4697 18.2197C17.329 18.3603 17.25 18.5511 17.25 18.75C17.25 18.9489 17.329 19.1397 17.4697 19.2803C17.6103 19.421 17.8011 19.5 18 19.5H27C27.1989 19.5 27.3897 19.421 27.5303 19.2803C27.671 19.1397 27.75 18.9489 27.75 18.75C27.75 18.5511 27.671 18.3603 27.5303 18.2197C27.3897 18.079 27.1989 18 27 18H18ZM18 21C17.8011 21 17.6103 21.079 17.4697 21.2197C17.329 21.3603 17.25 21.5511 17.25 21.75C17.25 21.9489 17.329 22.1397 17.4697 22.2803C17.6103 22.421 17.8011 22.5 18 22.5H27C27.1989 22.5 27.3897 22.421 27.5303 22.2803C27.671 22.1397 27.75 21.9489 27.75 21.75C27.75 21.5511 27.671 21.3603 27.5303 21.2197C27.3897 21.079 27.1989 21 27 21H18ZM18 24C17.8011 24 17.6103 24.079 17.4697 24.2197C17.329 24.3603 17.25 24.5511 17.25 24.75C17.25 24.9489 17.329 25.1397 17.4697 25.2803C17.6103 25.421 17.8011 25.5 18 25.5H27C27.1989 25.5 27.3897 25.421 27.5303 25.2803C27.671 25.1397 27.75 24.9489 27.75 24.75C27.75 24.5511 27.671 24.3603 27.5303 24.2197C27.3897 24.079 27.1989 24 27 24H18Z" fill="#B1B1B1"/>
</svg>
