<svg width="24" height="30" viewBox="0 0 24 30" fill="none" xmlns="http://www.w3.org/2000/svg">
<path d="M14.5 8.75V0H4.5C3.50544 0 2.55161 0.395088 1.84835 1.09835C1.14509 1.80161 0.75 2.75544 0.75 3.75V30H23.25V8.75H14.5ZM5.75 12.5H18.25V15H5.75V12.5ZM5.75 17.5H18.25V20H5.75V17.5ZM13.4188 26.25C12.5145 26.2492 11.6381 25.9376 10.9363 25.3675C10.5437 25.0888 10.4063 25 10.1088 25C9.28358 25.0284 8.49413 25.3436 7.87625 25.8912L6.11625 24.1162C7.19874 23.0981 8.62285 22.5216 10.1088 22.5C10.9398 22.5099 11.7426 22.8027 12.385 23.33C12.6652 23.594 13.0339 23.7438 13.4188 23.75C14.325 23.75 15.5287 22.4312 15.97 21.7925L18.0325 23.205C17.8188 23.5162 15.8825 26.25 13.4188 26.25ZM17 0.27375C17.7449 0.510433 18.4239 0.918431 18.9825 1.465L21.785 4.2675C22.3345 4.82473 22.7444 5.50406 22.9813 6.25H17V0.27375Z" fill="#B1B1B1"/>
</svg>
