<svg width="46" height="46" viewBox="0 0 46 46" fill="none" xmlns="http://www.w3.org/2000/svg">
<rect width="46" height="46" rx="23" fill="#2D60FF"/>
<g clip-path="url(#clip0_493_2052)">
<path d="M27.4961 23.2351C27.4961 25.6184 25.4795 27.5504 22.9919 27.5504C20.5043 27.5504 18.4877 25.6184 18.4877 23.2351C18.4877 20.8518 20.5043 18.9198 22.9919 18.9198C25.4795 18.9198 27.4961 20.8518 27.4961 23.2351ZM23 14.25C20.4244 14.2614 17.7547 14.8885 15.2274 16.0889C13.351 17.017 11.5222 18.3263 9.93485 19.9425C9.1552 20.7674 8.16078 21.962 8 23.2365C8.019 24.3405 9.20325 25.7032 9.93485 26.5306C11.4234 28.0832 13.2045 29.356 15.2274 30.385C17.5842 31.5288 20.1928 32.1873 23 32.224C25.5781 32.2124 28.2472 31.5781 30.7717 30.385C32.6481 29.457 34.4777 28.1467 36.0651 26.5306C36.8448 25.7056 37.8392 24.511 38 23.2365C37.981 22.1325 36.7967 20.7697 36.0651 19.9424C34.5766 18.3898 32.7946 17.1179 30.7717 16.0889C28.4161 14.946 25.8011 14.292 23 14.25ZM22.9981 16.4812C26.9011 16.4812 30.065 19.5061 30.065 23.2375C30.065 26.9689 26.9011 29.9937 22.9981 29.9937C19.0951 29.9937 15.9312 26.9689 15.9312 23.2375C15.9312 19.5061 19.0951 16.4812 22.9981 16.4812Z" fill="white"/>
</g>
<defs>
<clipPath id="clip0_493_2052">
<rect width="30" height="30" fill="white" transform="translate(8 8)"/>
</clipPath>
</defs>
</svg>
