<svg width="30" height="30" viewBox="0 0 30 30" fill="none" xmlns="http://www.w3.org/2000/svg">
<g clip-path="url(#clip0_490_317)">
<path d="M19.4961 15.2351C19.4961 17.6184 17.4795 19.5504 14.9919 19.5504C12.5043 19.5504 10.4877 17.6184 10.4877 15.2351C10.4877 12.8518 12.5043 10.9198 14.9919 10.9198C17.4795 10.9198 19.4961 12.8518 19.4961 15.2351ZM15 6.25C12.4244 6.26142 9.75465 6.88845 7.2274 8.08893C5.35095 9.01698 3.52225 10.3263 1.93485 11.9425C1.1552 12.7674 0.160775 13.962 0 15.2365C0.019 16.3405 1.20325 17.7032 1.93485 18.5306C3.42342 20.0832 5.2045 21.356 7.2274 22.385C9.58418 23.5288 12.1928 24.1873 15 24.224C17.5781 24.2124 20.2472 23.5781 22.7717 22.385C24.6481 21.457 26.4777 20.1467 28.0651 18.5306C28.8448 17.7056 29.8392 16.511 30 15.2365C29.981 14.1325 28.7967 12.7697 28.0651 11.9424C26.5766 10.3898 24.7946 9.11792 22.7717 8.08887C20.4161 6.94597 17.8011 6.29198 15 6.25ZM14.9981 8.4812C18.9011 8.4812 22.065 11.5061 22.065 15.2375C22.065 18.9689 18.9011 21.9937 14.9981 21.9937C11.0951 21.9937 7.93122 18.9689 7.93122 15.2375C7.93122 11.5061 11.0951 8.4812 14.9981 8.4812Z" fill="white"/>
</g>
<defs>
<clipPath id="clip0_490_317">
<rect width="30" height="30" fill="white"/>
</clipPath>
</defs>
</svg>
