<svg width="30" height="30" viewBox="0 0 30 30" fill="none" xmlns="http://www.w3.org/2000/svg">
<path d="M8.75 1.25V3.75H3.75C3.41848 3.75 3.10054 3.8817 2.86612 4.11612C2.6317 4.35054 2.5 4.66848 2.5 5V25C2.5 25.3315 2.6317 25.6495 2.86612 25.8839C3.10054 26.1183 3.41848 26.25 3.75 26.25H13.4438C11.9052 24.3284 11.1295 21.9068 11.2652 19.4489C11.4008 16.9911 12.4383 14.6696 14.1789 12.9289C15.9196 11.1883 18.2411 10.1508 20.6989 10.0152C23.1568 9.87953 25.5784 10.6552 27.5 12.1938V5C27.5 4.66848 27.3683 4.35054 27.1339 4.11612C26.8995 3.8817 26.5815 3.75 26.25 3.75H21.25V1.25H18.75V3.75H11.25V1.25H8.75ZM28.75 20C28.75 20.9849 28.556 21.9602 28.1791 22.8701C27.8022 23.7801 27.2497 24.6069 26.5533 25.3033C25.8569 25.9997 25.0301 26.5522 24.1201 26.9291C23.2102 27.306 22.2349 27.5 21.25 27.5C20.2651 27.5 19.2898 27.306 18.3799 26.9291C17.4699 26.5522 16.6431 25.9997 15.9467 25.3033C15.2503 24.6069 14.6978 23.7801 14.3209 22.8701C13.944 21.9602 13.75 20.9849 13.75 20C13.75 18.0109 14.5402 16.1032 15.9467 14.6967C17.3532 13.2902 19.2609 12.5 21.25 12.5C23.2391 12.5 25.1468 13.2902 26.5533 14.6967C27.9598 16.1032 28.75 18.0109 28.75 20ZM20 15V20.5175L22.8662 23.3838L24.6338 21.6162L22.5 19.4825V15H20Z" fill="#B1B1B1"/>
</svg>
