<svg width="25" height="25" viewBox="0 0 25 25" fill="none" xmlns="http://www.w3.org/2000/svg">
<g clip-path="url(#clip0_475_1170)">
<path fill-rule="evenodd" clip-rule="evenodd" d="M20.0752 13.675C20.4263 14.0266 20.6235 14.5031 20.6235 15C20.6235 15.4969 20.4263 15.9734 20.0752 16.325L13.0052 23.3975C12.6534 23.7491 12.1764 23.9465 11.6791 23.9464C11.4329 23.9464 11.189 23.8978 10.9616 23.8035C10.7341 23.7092 10.5274 23.571 10.3533 23.3969C10.1792 23.2227 10.0412 23.016 9.94697 22.7884C9.85279 22.5609 9.80434 22.3171 9.8044 22.0708C9.80446 21.8246 9.85302 21.5807 9.94731 21.3533C10.0416 21.1258 10.1798 20.9191 10.3539 20.745L16.0977 15L10.3527 9.255C10.1735 9.08212 10.0306 8.87529 9.93221 8.64658C9.83384 8.41787 9.782 8.17186 9.77972 7.9229C9.77744 7.67394 9.82477 7.42702 9.91894 7.19655C10.0131 6.96607 10.1522 6.75666 10.3282 6.58053C10.5042 6.4044 10.7134 6.26508 10.9438 6.17069C11.1742 6.07631 11.4211 6.02875 11.67 6.0308C11.919 6.03284 12.1651 6.08445 12.3939 6.1826C12.6227 6.28076 12.8296 6.4235 13.0027 6.6025L20.0777 13.675H20.0752Z" fill="#5656F1"/>
</g>
<defs>
<clipPath id="clip0_475_1170">
<rect width="30" height="30" fill="white" transform="matrix(-1 0 0 -1 30 30)"/>
</clipPath>
</defs>
</svg>
